<?xml version="1.0" encoding="UTF-8"?><svg xmlns="http://www.w3.org/2000/svg" viewBox="0 0 308.44 95.7"><defs><style>.d{fill:#1d1d1b;}</style></defs><g id="a"/><g id="b"><g id="c"><g><path class="d" d="M0,3.96L10.42,1.3V44.79c0,2.7,.32,4.73,.97,6.08,.61,1.29,1.72,2.4,3.33,3.33l5.65,3.23-4.63,8.2c-5.82-2.8-9.91-5.47-12.26-8.01-2.32-2.51-3.47-6.16-3.47-10.96V3.96Z"/><path class="d" d="M23.7,40.15c-.03-4.7,1.17-9.04,3.6-13.03s5.66-7.13,9.7-9.41,8.36-3.43,12.96-3.43h.14c7.05,.06,13.17,2.62,18.36,7.67s7.78,11.12,7.75,18.19c-.03,3.47-.76,6.8-2.2,9.99s-3.34,5.9-5.72,8.16-5.17,4.05-8.37,5.38-6.51,2-9.92,2h-.05c-4.57,0-8.86-1.13-12.89-3.38s-7.25-5.35-9.68-9.29-3.66-8.23-3.69-12.86Zm26.25-15.2c-4.38,0-8.19,1.62-11.44,4.87-2.93,2.93-4.38,6.35-4.34,10.28,.03,3.99,1.58,7.43,4.63,10.33,3.22,3.06,6.93,4.58,11.15,4.58h.05c4.15,0,7.83-1.53,11.05-4.58,3.06-2.9,4.6-6.34,4.63-10.33,.03-4.02-1.52-7.54-4.66-10.57s-6.8-4.55-10.98-4.58h-.1Z"/><path class="d" d="M134.99,40.15l.05,29.97c-.03,4.54-1.24,8.78-3.62,12.72s-5.57,7.07-9.58,9.39-8.31,3.47-12.91,3.47h-.05c-3.44,0-6.77-.68-9.99-2.05s-5.99-3.19-8.33-5.48-4.21-4.99-5.62-8.11-2.14-6.37-2.17-9.75l10.33-.05c-.06,3.99,1.46,7.46,4.58,10.42,3.15,3.06,6.89,4.58,11.2,4.58s7.98-1.53,11.2-4.58c3.09-2.93,4.65-6.42,4.68-10.47v-9.75c-5.02,3.44-10.3,5.16-15.83,5.16-4.6,0-8.91-1.15-12.93-3.45s-7.22-5.41-9.6-9.31-3.59-8.12-3.62-12.62c-.03-3.35,.59-6.55,1.86-9.6s3.11-5.81,5.53-8.25c2.48-2.51,5.35-4.45,8.61-5.82s6.64-2.05,10.11-2.05c5.24,.03,9.99,1.33,14.24,3.89s7.38,5.96,9.41,10.21c.9,1.96,1.58,4.13,2.03,6.52,.29,1.54,.43,3.22,.43,5.02Zm-14.91,10.47c3.09-2.93,4.65-6.4,4.68-10.42s-1.54-7.56-4.71-10.62-6.86-4.6-11.08-4.63h-.1c-4.47,0-8.3,1.62-11.49,4.87-2.96,3.06-4.42,6.52-4.39,10.38,.03,4.02,1.59,7.5,4.68,10.42,3.22,3.06,6.95,4.58,11.2,4.58s7.98-1.53,11.2-4.58Z"/><path class="d" d="M142.95,40.15c-.03-4.7,1.17-9.04,3.6-13.03s5.66-7.13,9.7-9.41,8.36-3.43,12.96-3.43h.14c7.05,.06,13.17,2.62,18.36,7.67s7.78,11.12,7.75,18.19c-.03,3.47-.76,6.8-2.2,9.99s-3.34,5.9-5.72,8.16-5.17,4.05-8.37,5.38-6.51,2-9.92,2h-.05c-4.57,0-8.86-1.13-12.89-3.38s-7.25-5.35-9.68-9.29c-2.43-3.94-3.66-8.23-3.69-12.86Zm26.25-15.2c-4.38,0-8.19,1.62-11.44,4.87-2.93,2.93-4.38,6.35-4.34,10.28,.03,3.99,1.58,7.43,4.63,10.33,3.22,3.06,6.93,4.58,11.15,4.58h.05c4.15,0,7.83-1.53,11.05-4.58,3.06-2.9,4.6-6.34,4.63-10.33,.03-4.02-1.52-7.54-4.66-10.57s-6.8-4.55-10.98-4.58h-.1Z"/><path class="d" d="M203.76,46.67V2.9l10.47-2.9V15.54h8.3v8.4h-8.3v20.85c0,2.61,.34,4.58,1.01,5.94,.71,1.45,1.8,2.61,3.28,3.47l5.65,3.23-4.63,8.2c-5.82-2.8-9.91-5.47-12.26-8.01s-3.52-6.19-3.52-10.96Z"/><path class="d" d="M279.82,41.79v1.93h-40.3c.23,3.57,1.82,6.6,4.78,9.07,2.93,2.45,6.27,3.67,10.04,3.67,5.6,0,10.28-2.51,14.04-7.53l8.83,4.92c-2.96,3.7-6.39,6.58-10.28,8.64-3.89,2.09-8,3.15-12.31,3.19-4.02,0-7.72-.71-11.1-2.12-3.47-1.45-6.32-3.36-8.54-5.74-2.35-2.51-4.12-5.28-5.31-8.3-1.19-3.06-1.79-6.19-1.79-9.41s.6-6.35,1.79-9.41c1.22-3.12,2.99-5.89,5.31-8.3,2.22-2.38,5.07-4.3,8.54-5.74,3.38-1.42,7.08-2.12,11.1-2.12,2.73,0,5.53,.55,8.4,1.64,2.93,1.13,5.66,2.82,8.2,5.07s4.62,5.13,6.23,8.64c1.58,3.44,2.36,7.42,2.36,11.92Zm-40.3-6.71h28.04c-1.06-3.67-2.88-6.47-5.45-8.4-2.61-1.96-5.57-2.94-8.88-2.94s-6.29,1.01-8.74,3.04-4.1,4.79-4.97,8.3Z"/><path class="d" d="M288.07,3.96l10.42-2.65V44.79c0,2.7,.32,4.73,.97,6.08,.61,1.29,1.72,2.4,3.33,3.33l5.65,3.23-4.63,8.2c-5.82-2.8-9.91-5.47-12.26-8.01-2.32-2.51-3.47-6.16-3.47-10.96V3.96Z"/></g></g></g></svg>